<svg xmlns="http://www.w3.org/2000/svg" viewBox="0 0 512 512" role="img" aria-label="Dog Food Finder icon">
  <rect width="512" height="512" rx="96" fill="#ffffff"/>
  <path d="M142 256c0-62 50-112 112-112h4c62 0 112 50 112 112v90c0 12-10 22-22 22H164c-12 0-22-10-22-22v-90Z" fill="none" stroke="#111827" stroke-width="28" stroke-linejoin="round"/>
  <path d="M176 164l-34-46c-9-12 1-29 16-27l61 9" fill="none" stroke="#111827" stroke-width="28" stroke-linecap="round" stroke-linejoin="round"/>
  <path d="M336 164l34-46c9-12-1-29-16-27l-61 9" fill="none" stroke="#111827" stroke-width="28" stroke-linecap="round" stroke-linejoin="round"/>
  <path d="M214 250h.5M298 250h.5" stroke="#111827" stroke-width="34" stroke-linecap="round"/>
  <path d="M232 306c14 12 34 12 48 0" fill="none" stroke="#111827" stroke-width="24" stroke-linecap="round"/>
  <path d="M174 402h164" stroke="#111827" stroke-width="28" stroke-linecap="round"/>
</svg>
